<?xml version="1.0" encoding="UTF-8"?>
<svg version="1.1" xmlns="http://www.w3.org/2000/svg" width="96" height="96">
<path d="M0 0 C4.32927155 2.7376276 8.01199727 5.76107722 11.453125 9.57421875 C11.93394531 10.06277344 12.41476563 10.55132812 12.91015625 11.0546875 C22.60735382 21.39018162 23.93204886 33.09115192 23.7265625 46.57421875 C23.50332433 52.52428953 22.29123861 57.32496438 19.453125 62.57421875 C18.94394531 63.51652344 18.43476562 64.45882812 17.91015625 65.4296875 C11.73406774 75.90218541 3.82008274 82.19271652 -7.546875 86.57421875 C-10.25622802 87.10481995 -11.78571275 87.05442088 -14.546875 86.57421875 C-17.4318331 83.68926065 -16.92962752 80.63433405 -17.046875 76.76171875 C-17.19381893 71.98604095 -17.55806504 67.98142162 -19.546875 63.57421875 C-19.671875 60.76171875 -19.671875 60.76171875 -19.546875 58.57421875 C-18.721875 58.30609375 -17.896875 58.03796875 -17.046875 57.76171875 C-15.314375 57.17390625 -15.314375 57.17390625 -13.546875 56.57421875 C-12.87398437 56.36796875 -12.20109375 56.16171875 -11.5078125 55.94921875 C-6.82728675 54.40657356 -4.20982273 52.94145302 -1.546875 48.57421875 C-0.1312264 43.94466522 0.79015375 38.19771633 -1.4765625 33.75 C-1.85039063 33.19699219 -2.22421875 32.64398438 -2.609375 32.07421875 C-5.07527836 28.39699445 -4.61512544 25.54303891 -3.90625 21.296875 C-3.78765625 20.72839844 -3.6690625 20.15992187 -3.546875 19.57421875 C-4.41183594 20.22519531 -5.27679688 20.87617188 -6.16796875 21.546875 C-11.87600916 24.79938105 -18.22964158 24.11371552 -24.609375 24.01171875 C-25.86298828 24.01880859 -27.11660156 24.02589844 -28.40820312 24.03320312 C-34.72835584 23.98952318 -38.95179172 23.7487826 -44.546875 20.57421875 C-44.58425781 21.23808594 -44.62164062 21.90195312 -44.66015625 22.5859375 C-45.21541991 30.04389061 -45.21541991 30.04389061 -47.109375 33.07421875 C-49.40814711 37.07208328 -49.06674903 41.07586434 -48.546875 45.57421875 C-46.80393429 50.80304088 -44.41142858 53.05185764 -39.546875 55.57421875 C-37.17456299 56.23122722 -34.82498072 56.74547953 -32.40234375 57.1796875 C-30.546875 57.57421875 -30.546875 57.57421875 -29.546875 58.57421875 C-30.14320528 65.96871416 -30.14320528 65.96871416 -32.546875 69.57421875 C-35.42898802 70.53492309 -37.24537544 70.68003758 -40.234375 70.63671875 C-41.04261719 70.62769531 -41.85085937 70.61867188 -42.68359375 70.609375 C-43.29847656 70.59777344 -43.91335937 70.58617188 -44.546875 70.57421875 C-43.76441406 70.63480469 -42.98195313 70.69539063 -42.17578125 70.7578125 C-40.65791016 70.88349609 -40.65791016 70.88349609 -39.109375 71.01171875 C-37.59537109 71.13353516 -37.59537109 71.13353516 -36.05078125 71.2578125 C-33.546875 71.57421875 -33.546875 71.57421875 -32.546875 72.57421875 C-32.42172572 74.55041322 -32.3711474 76.53160048 -32.359375 78.51171875 C-32.34519531 79.59324219 -32.33101562 80.67476563 -32.31640625 81.7890625 C-32.546875 84.57421875 -32.546875 84.57421875 -34.546875 86.57421875 C-43.05479238 87.81173401 -48.99256639 83.7749741 -55.78125 79.00390625 C-61.4362748 74.46673519 -65.12221318 68.91201062 -68.546875 62.57421875 C-68.98386719 61.76597656 -69.42085938 60.95773438 -69.87109375 60.125 C-74.39817212 50.00658273 -74.43496975 35.8521985 -70.921875 25.38671875 C-67.72385787 18.18835511 -63.4110593 11.85198462 -57.546875 6.57421875 C-56.66 5.74921875 -55.773125 4.92421875 -54.859375 4.07421875 C-39.85981021 -8.18058032 -16.66105728 -9.32712563 0 0 Z " fill="#040404" transform="translate(72.546875,7.42578125)"/>
<path d="M0 0 C8.79186525 6.23747197 14.98416363 15.53824843 16.98828125 26.25390625 C18.09042544 37.76666547 17.17689778 47.86415408 10.0625 57.453125 C5.07410428 63.33879104 -0.41393263 68.7650286 -7.6875 71.640625 C-8.6775 71.640625 -9.6675 71.640625 -10.6875 71.640625 C-11.0175 66.360625 -11.3475 61.080625 -11.6875 55.640625 C-10.140625 54.939375 -8.59375 54.238125 -7 53.515625 C-1.10014078 50.56986785 2.89518463 46.92776542 5.3125 40.640625 C5.50451413 37.92983731 5.59191825 35.34710436 5.5625 32.640625 C5.57023437 31.9290625 5.57796875 31.2175 5.5859375 30.484375 C5.57144432 26.60020172 5.17034973 24.01333683 3.3125 20.640625 C2.95224961 17.85687199 2.81020508 15.09885746 2.65625 12.296875 C2.3130186 9.64463234 1.65250838 7.93160707 0.3125 5.640625 C-1.10500563 5.75572161 -2.52151169 5.88316158 -3.9375 6.015625 C-4.72640625 6.08523437 -5.5153125 6.15484375 -6.328125 6.2265625 C-8.67734684 6.50474927 -8.67734684 6.50474927 -10.48413086 7.64770508 C-14.95852413 9.66403277 -20.17278151 8.96692494 -25 8.953125 C-26.11568359 8.96923828 -27.23136719 8.98535156 -28.38085938 9.00195312 C-34.67037986 9.00568135 -39.0992486 8.52537099 -44.6875 5.640625 C-47.48090157 5.38672278 -47.48090157 5.38672278 -49.6875 5.640625 C-51.55602088 8.83737156 -51.95506629 11.33887742 -52.125 15.015625 C-52.37619577 18.54166938 -52.59670093 20.46629079 -54.25 23.640625 C-56.77490141 28.90998446 -56.69231466 34.73927704 -54.78515625 40.24609375 C-54.08557628 41.77222372 -53.34800599 43.28189147 -52.5625 44.765625 C-51.6875 46.640625 -51.6875 46.640625 -51.6875 49.640625 C-54.3275 49.640625 -56.9675 49.640625 -59.6875 49.640625 C-59.18451212 54.04176897 -57.59977269 56.35257519 -54.6875 59.640625 C-55.1825 60.630625 -55.1825 60.630625 -55.6875 61.640625 C-64.51947675 52.60792151 -67.14347704 41.52608755 -67.03125 29.125 C-65.87978827 17.45336524 -58.73233823 7.62177973 -49.97265625 0.24609375 C-34.58961699 -10.56147743 -15.53860994 -10.00298015 0 0 Z " fill="#AEAEAE" transform="translate(72.6875,15.359375)"/>
<path d="M0 0 C0.66 0 1.32 0 2 0 C3.5078125 1.75 3.5078125 1.75 5.125 4 C5.66382813 4.7425 6.20265625 5.485 6.7578125 6.25 C7.16773438 6.8275 7.57765625 7.405 8 8 C7.67 8.66 7.34 9.32 7 10 C6.01524786 8.90081184 5.03739527 7.7954398 4.0625 6.6875 C3.51722656 6.07261719 2.97195312 5.45773438 2.41015625 4.82421875 C1 3 1 3 0 0 Z " fill="#919191" transform="translate(10,67)"/>
</svg>
